<svg xmlns="http://www.w3.org/2000/svg" xmlns:xlink="http://www.w3.org/1999/xlink" version="1.1" x="0px" y="0px" viewBox="0 0 100 125" enable-background="new 0 0 100 100" xml:space="preserve"><g><g><path d="M45.999,24c-0.828,0-1.5,0.671-1.5,1.5v23H17c-0.828,0-1.5,0.671-1.5,1.5s0.672,1.5,1.5,1.5h27.499v23    c0,0.829,0.672,1.5,1.5,1.5s1.5-0.671,1.5-1.5V25.5C47.499,24.672,46.827,24,45.999,24z"/><path d="M83,48.5H55.501v-23c0-0.829-0.672-1.5-1.5-1.5s-1.5,0.671-1.5,1.5V74.5c0,0.829,0.672,1.5,1.5,1.5s1.5-0.671,1.5-1.5v-23    H83c0.828,0,1.5-0.671,1.5-1.5S83.828,48.5,83,48.5z"/></g></g></svg>