<svg xmlns="http://www.w3.org/2000/svg" xmlns:xlink="http://www.w3.org/1999/xlink" version="1.1" x="0px" y="0px" viewBox="0 0 100 125" style="enable-background:new 0 0 100 100;" xml:space="preserve"><g><polyline style="" points="   5,50 26.375,50 29.661,37.5 35.089,62.5 41.661,37.5 47.089,62.5 53.661,37.5 59.089,62.5 65.661,37.5 71.089,62.5 74.375,50    95,50  " display="none" fill="none" stroke="#000000" stroke-width="3" stroke-linecap="round" stroke-linejoin="round" stroke-miterlimit="10"/><path d="M47.089,64c-0.011,0-0.022,0-0.033,0c-0.693-0.016-1.286-0.504-1.433-1.182l-4.1-18.889l-4.983,18.953   c-0.176,0.671-0.794,1.131-1.483,1.118c-0.693-0.016-1.286-0.504-1.433-1.182l-4.1-18.889l-1.697,6.452   c-0.173,0.66-0.769,1.119-1.451,1.119H5c-0.829,0-1.5-0.671-1.5-1.5s0.671-1.5,1.5-1.5h20.218l2.993-11.381   c0.176-0.671,0.806-1.133,1.483-1.118c0.693,0.015,1.286,0.503,1.433,1.181l4.1,18.89l4.983-18.953   c0.176-0.671,0.792-1.133,1.483-1.118c0.693,0.015,1.286,0.503,1.433,1.181l4.1,18.889l4.982-18.952   c0.177-0.67,0.804-1.139,1.483-1.118c0.693,0.015,1.286,0.503,1.434,1.181l4.101,18.89l4.982-18.953   c0.177-0.67,0.81-1.139,1.483-1.118c0.693,0.015,1.286,0.503,1.434,1.181l4.101,18.89l1.696-6.453   c0.174-0.659,0.77-1.119,1.451-1.119H95c0.828,0,1.5,0.671,1.5,1.5s-0.672,1.5-1.5,1.5H75.531L72.54,62.882   c-0.177,0.671-0.795,1.132-1.483,1.118c-0.693-0.016-1.286-0.504-1.434-1.182l-4.101-18.889L60.54,62.882   c-0.177,0.671-0.801,1.132-1.483,1.118c-0.693-0.016-1.286-0.504-1.434-1.182l-4.102-18.89l-4.982,18.953   C48.366,63.542,47.769,64,47.089,64z"/></g></svg>